<svg width="960" height="500" xmlns="http://www.w3.org/2000/svg"><g transform="translate(10,20)"><circle class="dot" opacity="0.8" r="10" cx="42.727272727272755" cy="376.1162515316713"></circle><circle class="dot" opacity="0.8" r="10" cx="46.56722898774449" cy="369.4633742879633"></circle><circle class="dot" opacity="0.8" r="10" cx="48.06040149517567" cy="388.70349807630174"></circle><circle class="dot" opacity="0.8" r="10" cx="84.68541319502378" cy="387.75198651660247"></circle><circle class="dot" opacity="0.8" r="10" cx="93.20053006525151" cy="374.30486013876254"></circle><circle class="dot" opacity="0.8" r="10" cx="101.53267816293854" cy="356.21418459646304"></circle><circle class="dot" opacity="0.8" r="10" cx="102.00118753108057" cy="398.3335054711309"></circle><circle class="dot" opacity="0.8" r="10" cx="104.56202727005166" cy="372.7149462399076"></circle><circle class="dot" opacity="0.8" r="10" cx="104.57328951767244" cy="373.69712514240047"></circle><circle class="dot" opacity="0.8" r="10" cx="110.39388068145406" cy="386.08911943793987"></circle><circle class="dot" opacity="0.8" r="10" cx="111.65060359233918" cy="367.7303646027003"></circle><circle class="dot" opacity="0.8" r="10" cx="111.6798607452299" cy="353.0225685551442"></circle><circle class="dot" opacity="0.8" r="10" cx="116.27958120933869" cy="361.70823062424927"></circle><circle class="dot" opacity="0.8" r="10" cx="127.05398215535159" cy="372.624109930743"></circle><circle class="dot" opacity="0.8" r="10" cx="128.72638752850938" cy="387.82501023378904"></circle><circle class="dot" opacity="0.8" r="10" cx="144.81887944153118" cy="391.184610444942"></circle><circle class="dot" opacity="0.8" r="10" cx="148.4965081862622" cy="379.23253524041866"></circle><circle class="dot" opacity="0.8" r="10" cx="150.04030308934918" cy="377.7878726679073"></circle><circle class="dot" opacity="0.8" r="10" cx="153.671299804766" cy="380.7658315623919"></circle><circle class="dot" opacity="0.8" r="10" cx="156.16284700734636" cy="377.3908649428059"></circle><circle class="dot" opacity="0.8" r="10" cx="162.15476374446837" cy="364.6055659838398"></circle><circle class="dot" opacity="0.8" r="10" cx="167.58415808754825" cy="368.31030057310585"></circle><circle class="dot" opacity="0.8" r="10" cx="168.71852777743834" cy="348.37228786091754"></circle><circle class="dot" opacity="0.8" r="10" cx="179.95758618715013" cy="381.19444491987207"></circle><circle class="dot" opacity="0.8" r="10" cx="180.5442002866939" cy="397.30235009394823"></circle><circle class="dot" opacity="0.8" r="10" cx="184.3237351711228" cy="395.32833711259"></circle><circle class="dot" opacity="0.8" r="10" cx="187.1184161164592" cy="381.0011409703192"></circle><circle class="dot" opacity="0.8" r="10" cx="188.12888830602557" cy="365.8235898570024"></circle><circle class="dot" opacity="0.8" r="10" cx="188.55226447968587" cy="360.72944755756725"></circle><circle class="dot" opacity="0.8" r="10" cx="190.55281968598092" cy="380.66568692522515"></circle><circle class="dot" opacity="0.8" r="10" cx="201.83059509191727" cy="383.0226406122063"></circle><circle class="dot" opacity="0.8" r="10" cx="214.5350821210891" cy="351.62161008633404"></circle><circle class="dot" opacity="0.8" r="10" cx="215.22098909226415" cy="410.45454545454544"></circle><circle class="dot" opacity="0.8" r="10" cx="215.2304251110548" cy="345.99326138748836"></circle><circle class="dot" opacity="0.8" r="10" cx="222.77869599412438" cy="394.1395250623675"></circle><circle class="dot" opacity="0.8" r="10" cx="223.89842902942138" cy="389.25465914624493"></circle><circle class="dot" opacity="0.8" r="10" cx="226.1103642102633" cy="373.8637556864148"></circle><circle class="dot" opacity="0.8" r="10" cx="231.9319678701102" cy="378.6532671784587"></circle><circle class="dot" opacity="0.8" r="10" cx="236.3989302455848" cy="378.22180480638855"></circle><circle class="dot" opacity="0.8" r="10" cx="242.05538826996752" cy="371.12066841903743"></circle><circle class="dot" opacity="0.8" r="10" cx="244.16317432416727" cy="349.38165596796955"></circle><circle class="dot" opacity="0.8" r="10" cx="245.56180423754893" cy="369.9803488204118"></circle><circle class="dot" opacity="0.8" r="10" cx="251.0936280711753" cy="396.40243569226925"></circle><circle class="dot" opacity="0.8" r="10" cx="252.9404322363871" cy="359.7290715301991"></circle><circle class="dot" opacity="0.8" r="10" cx="259.58993137531155" cy="379.34715707301706"></circle><circle class="dot" opacity="0.8" r="10" cx="260.2548428944476" cy="375.3032573784576"></circle><circle class="dot" opacity="0.8" r="10" cx="263.4269207573714" cy="360.59778056522464"></circle><circle class="dot" opacity="0.8" r="10" cx="276.5672720736936" cy="358.7964642151264"></circle><circle class="dot" opacity="0.8" r="10" cx="277.34677734921894" cy="405.640775341081"></circle><circle class="dot" opacity="0.8" r="10" cx="280.6374954900544" cy="376.3667823459733"></circle><circle class="dot" opacity="0.8" r="10" cx="289.8359810110803" cy="354.8514760718241"></circle><circle class="dot" opacity="0.8" r="10" cx="290.5290711828001" cy="376.49224717325103"></circle><circle class="dot" opacity="0.8" r="10" cx="291.7492162062867" cy="355.4185483850815"></circle><circle class="dot" opacity="0.8" r="10" cx="294.0923376990369" cy="369.4514279569822"></circle><circle class="dot" opacity="0.8" r="10" cx="294.40819059539723" cy="357.17642025338364"></circle><circle class="dot" opacity="0.8" r="10" cx="295.45066027385195" cy="352.3544292409519"></circle><circle class="dot" opacity="0.8" r="10" cx="297.2670291127137" cy="363.1642533612409"></circle><circle class="dot" opacity="0.8" r="10" cx="297.31452205682564" cy="390.6298518906913"></circle><circle class="dot" opacity="0.8" r="10" cx="303.7819796311473" cy="371.32513906789654"></circle><circle class="dot" opacity="0.8" r="10" cx="305.0437492997332" cy="360.6178849208994"></circle><circle class="dot" opacity="0.8" r="10" cx="322.9826794545652" cy="387.58485173003805"></circle><circle class="dot" opacity="0.8" r="10" cx="326.08172588748016" cy="374.32371150407835"></circle><circle class="dot" opacity="0.8" r="10" cx="326.2794298496933" cy="369.33293417066534"></circle><circle class="dot" opacity="0.8" r="10" cx="327.7260763539039" cy="346.6963522997438"></circle><circle class="dot" opacity="0.8" r="10" cx="328.6339786894436" cy="380.48435469884134"></circle><circle class="dot" opacity="0.8" r="10" cx="331.2597605581419" cy="380.6302279903796"></circle><circle class="dot" opacity="0.8" r="10" cx="331.6951330925559" cy="329.08137063980223"></circle><circle class="dot" opacity="0.8" r="10" cx="337.20654656114664" cy="405.8028572479955"></circle><circle class="dot" opacity="0.8" r="10" cx="350.02284855901087" cy="359.82199136451754"></circle><circle class="dot" opacity="0.8" r="10" cx="350.3627950261782" cy="333.8992375566007"></circle><circle class="dot" opacity="0.8" r="10" cx="353.7188256394635" cy="344.692008182968"></circle><circle class="dot" opacity="0.8" r="10" cx="361.70408874226314" cy="368.67825960566836"></circle><circle class="dot" opacity="0.8" r="10" cx="372.8574872433324" cy="345.44140076271606"></circle><circle class="dot" opacity="0.8" r="10" cx="391.93004445201075" cy="312.4752645912599"></circle><circle class="dot" opacity="0.8" r="10" cx="398.920077704385" cy="288.99191747632176"></circle><circle class="dot" opacity="0.8" r="10" cx="399.299714389946" cy="300.090631176833"></circle><circle class="dot" opacity="0.8" r="10" cx="399.30511720755334" cy="321.86042175079746"></circle><circle class="dot" opacity="0.8" r="10" cx="402.4622766365906" cy="309.55199525233775"></circle><circle class="dot" opacity="0.8" r="10" cx="405.0961033066573" cy="313.49772182855423"></circle><circle class="dot" opacity="0.8" r="10" cx="409.740788289525" cy="312.09369449116934"></circle><circle class="dot" opacity="0.8" r="10" cx="413.57810278208893" cy="295.48595631795206"></circle><circle class="dot" opacity="0.8" r="10" cx="414.03539761749414" cy="289.6081831772731"></circle><circle class="dot" opacity="0.8" r="10" cx="423.7222471553388" cy="276.69887294724094"></circle><circle class="dot" opacity="0.8" r="10" cx="427.2296235929443" cy="265.66149378852464"></circle><circle class="dot" opacity="0.8" r="10" cx="434.012864130599" cy="291.1054903853734"></circle><circle class="dot" opacity="0.8" r="10" cx="434.90977412715864" cy="269.45954905777955"></circle><circle class="dot" opacity="0.8" r="10" cx="438.94653188158145" cy="245.22630015805458"></circle><circle class="dot" opacity="0.8" r="10" cx="446.0069971471715" cy="244.25348160759873"></circle><circle class="dot" opacity="0.8" r="10" cx="455.51672717813653" cy="233.72497585082166"></circle><circle class="dot" opacity="0.8" r="10" cx="459.7078646697872" cy="196.10593634579416"></circle><circle class="dot" opacity="0.8" r="10" cx="474.50248964597273" cy="212.72234488964943"></circle><circle class="dot" opacity="0.8" r="10" cx="474.55980287185594" cy="175.71087514110906"></circle><circle class="dot" opacity="0.8" r="10" cx="480.75331546195696" cy="192.13464809835972"></circle><circle class="dot" opacity="0.8" r="10" cx="485.5531271278987" cy="184.8066500885494"></circle><circle class="dot" opacity="0.8" r="10" cx="488.7856586900779" cy="159.60833745484132"></circle><circle class="dot" opacity="0.8" r="10" cx="489.65487283509003" cy="154.94869449064765"></circle><circle class="dot" opacity="0.8" r="10" cx="493.6627066916618" cy="164.41774636125496"></circle><circle class="dot" opacity="0.8" r="10" cx="498.1534898244671" cy="158.01504866607291"></circle><circle class="dot" opacity="0.8" r="10" cx="509.8292278098195" cy="112.24320799961043"></circle><circle class="dot" opacity="0.8" r="10" cx="511.2487356936078" cy="146.90555169975784"></circle><circle class="dot" opacity="0.8" r="10" cx="522.6520425107634" cy="98.39661942238888"></circle><circle class="dot" opacity="0.8" r="10" cx="523.2206474286214" cy="106.1666211253447"></circle><circle class="dot" opacity="0.8" r="10" cx="523.4649467803229" cy="125.45864437164425"></circle><circle class="dot" opacity="0.8" r="10" cx="523.6157362110094" cy="112.5392115297123"></circle><circle class="dot" opacity="0.8" r="10" cx="525.785389606715" cy="131.21198683699726"></circle><circle class="dot" opacity="0.8" r="10" cx="544.6851134410424" cy="113.19965517980557"></circle><circle class="dot" opacity="0.8" r="10" cx="548.3253235577711" cy="88.40628706819905"></circle><circle class="dot" opacity="0.8" r="10" cx="549.7088886754118" cy="71.0085043052805"></circle><circle class="dot" opacity="0.8" r="10" cx="550.4744931521398" cy="77.9630577523642"></circle><circle class="dot" opacity="0.8" r="10" cx="553.5932925804689" cy="122.46270616486663"></circle><circle class="dot" opacity="0.8" r="10" cx="554.6154152146067" cy="95.0380152996924"></circle><circle class="dot" opacity="0.8" r="10" cx="561.9840785510067" cy="112.07121677010468"></circle><circle class="dot" opacity="0.8" r="10" cx="583.4554259629654" cy="54.957178828027565"></circle><circle class="dot" opacity="0.8" r="10" cx="589.9590770740492" cy="95.30263090614193"></circle><circle class="dot" opacity="0.8" r="10" cx="600.5526259676917" cy="51.42988216581938"></circle><circle class="dot" opacity="0.8" r="10" cx="600.79073188408" cy="84.8607000271856"></circle><circle class="dot" opacity="0.8" r="10" cx="603.0421308565406" cy="65.26133496320881"></circle><circle class="dot" opacity="0.8" r="10" cx="603.8171566026263" cy="59.089072157217856"></circle><circle class="dot" opacity="0.8" r="10" cx="621.2511274345646" cy="69.45948534221293"></circle><circle class="dot" opacity="0.8" r="10" cx="645.140638162542" cy="84.86329219459759"></circle><circle class="dot" opacity="0.8" r="10" cx="647.1938865916057" cy="65.12229062953566"></circle><circle class="dot" opacity="0.8" r="10" cx="647.5299007467551" cy="58.687751151803354"></circle><circle class="dot" opacity="0.8" r="10" cx="649.1032613619234" cy="111.91974462697948"></circle><circle class="dot" opacity="0.8" r="10" cx="650.5995687167573" cy="71.47311817947315"></circle><circle class="dot" opacity="0.8" r="10" cx="654.8146443362589" cy="56.230533211878026"></circle><circle class="dot" opacity="0.8" r="10" cx="657.5392281955611" cy="55.59921463798645"></circle><circle class="dot" opacity="0.8" r="10" cx="668.1044620760752" cy="51.67702406004497"></circle><circle class="dot" opacity="0.8" r="10" cx="669.5402303874913" cy="41.57899588893417"></circle><circle class="dot" opacity="0.8" r="10" cx="676.0099216183119" cy="37.966428393169736"></circle><circle class="dot" opacity="0.8" r="10" cx="678.4606432139836" cy="63.097205769813456"></circle><circle class="dot" opacity="0.8" r="10" cx="680.4443166450044" cy="40.852404112044326"></circle><circle class="dot" opacity="0.8" r="10" cx="691.0767732718876" cy="41.42995439000077"></circle><circle class="dot" opacity="0.8" r="10" cx="693.6694395946936" cy="54.75788743092647"></circle><circle class="dot" opacity="0.8" r="10" cx="694.8049847701494" cy="34.33078008211032"></circle><circle class="dot" opacity="0.8" r="10" cx="695.6103076580973" cy="48.809396214474134"></circle><circle class="dot" opacity="0.8" r="10" cx="696.7060326069386" cy="86.70326567670008"></circle><circle class="dot" opacity="0.8" r="10" cx="713.1664788397808" cy="33.14393009009416"></circle><circle class="dot" opacity="0.8" r="10" cx="713.2811631068093" cy="31.522259387168162"></circle><circle class="dot" opacity="0.8" r="10" cx="716.398779446882" cy="48.50747655831253"></circle><circle class="dot" opacity="0.8" r="10" cx="716.4416264586066" cy="82.30252612512191"></circle><circle class="dot" opacity="0.8" r="10" cx="716.9405156001255" cy="59.355758770541286"></circle><circle class="dot" opacity="0.8" r="10" cx="717.605812752998" cy="56.990728350858774"></circle><circle class="dot" opacity="0.8" r="10" cx="722.5130548403902" cy="80.6249481443167"></circle><circle class="dot" opacity="0.8" r="10" cx="731.6647803391264" cy="41.541130809040226"></circle><circle class="dot" opacity="0.8" r="10" cx="732.5186298622491" cy="51.45197615610425"></circle><circle class="dot" opacity="0.8" r="10" cx="733.7973324570764" cy="54.05480957022314"></circle><circle class="dot" opacity="0.8" r="10" cx="736.3601144485933" cy="73.467918243751"></circle><circle class="dot" opacity="0.8" r="10" cx="742.5033286884941" cy="42.28786842529263"></circle><circle class="dot" opacity="0.8" r="10" cx="745.0715610188953" cy="62.75483002124565"></circle><circle class="dot" opacity="0.8" r="10" cx="753.0364618902472" cy="51.860738035218105"></circle><circle class="dot" opacity="0.8" r="10" cx="754.0531134446815" cy="48.48942820049217"></circle><circle class="dot" opacity="0.8" r="10" cx="758.3145671525112" cy="57.56124995837223"></circle><circle class="dot" opacity="0.8" r="10" cx="760.3795146786392" cy="62.868843977188305"></circle><circle class="dot" opacity="0.8" r="10" cx="761.988256583385" cy="61.69423890957256"></circle><circle class="dot" opacity="0.8" r="10" cx="763.0103272167693" cy="73.41511886777624"></circle><circle class="dot" opacity="0.8" r="10" cx="765.1727011353727" cy="61.21955104284001"></circle><circle class="dot" opacity="0.8" r="10" cx="766.7577604243585" cy="52.975412751593865"></circle><circle class="dot" opacity="0.8" r="10" cx="770.6003578389481" cy="61.481406229836296"></circle><circle class="dot" opacity="0.8" r="10" cx="771.9826614421579" cy="62.3140078887601"></circle><circle class="dot" opacity="0.8" r="10" cx="783.9744677809587" cy="59.026278717178855"></circle><circle class="dot" opacity="0.8" r="10" cx="784.2285757767698" cy="48.43250063450057"></circle><circle class="dot" opacity="0.8" r="10" cx="785.3026242334807" cy="110.92235369089826"></circle><circle class="dot" opacity="0.8" r="10" cx="790.9629495079968" cy="55.83841048232887"></circle><circle class="dot" opacity="0.8" r="10" cx="800.0054907772045" cy="61.03403512824997"></circle><circle class="dot" opacity="0.8" r="10" cx="805.6487485671825" cy="43.10932914569702"></circle><circle class="dot" opacity="0.8" r="10" cx="816.5090433091341" cy="19.54545454545456"></circle><circle class="dot" opacity="0.8" r="10" cx="820.933850598995" cy="29.371686325817848"></circle><circle class="dot" opacity="0.8" r="10" cx="829.3976749522742" cy="35.00319045327399"></circle><circle class="dot" opacity="0.8" r="10" cx="839.9210574895444" cy="40.070171604114705"></circle><circle class="dot" opacity="0.8" r="10" cx="840.387017417791" cy="45.020899731355655"></circle><circle class="dot" opacity="0.8" r="10" cx="856.7123001433968" cy="40.31835922874609"></circle><circle class="dot" opacity="0.8" r="10" cx="857.979627898505" cy="58.107407492672166"></circle><circle class="dot" opacity="0.8" r="10" cx="858.7256942499113" cy="53.62635370548651"></circle><circle class="dot" opacity="0.8" r="10" cx="861.6751104933562" cy="39.950627384411916"></circle><circle class="dot" opacity="0.8" r="10" cx="864.0172101490609" cy="27.11416263262163"></circle><circle class="dot" opacity="0.8" r="10" cx="865.250996437143" cy="61.987962818063295"></circle><circle class="dot" opacity="0.8" r="10" cx="868.5225828744032" cy="74.18604295931863"></circle><circle class="dot" opacity="0.8" r="10" cx="874.6255952645191" cy="78.1956788955128"></circle><circle class="dot" opacity="0.8" r="10" cx="879.9459816464095" cy="77.92556114330114"></circle><circle class="dot" opacity="0.8" r="10" cx="890.9114813306014" cy="68.35525723164358"></circle><circle class="dot" opacity="0.8" r="10" cx="892.3792946551604" cy="53.11260750747812"></circle><circle class="dot" opacity="0.8" r="10" cx="897.2727272727274" cy="48.00574352219434"></circle></g></svg>
